<svg xmlns="http://www.w3.org/2000/svg" xmlns:xlink="http://www.w3.org/1999/xlink" width="700" height="282.23"><rect width="700" height="282.23" rx="0" ry="0" class="a"/><svg height="282.23" viewBox="0 0 70 28.223" width="700" xmlns="http://www.w3.org/2000/svg" xmlns:xlink="http://www.w3.org/1999/xlink"><style>@keyframes k{0%{transform:translateX(0)}4.7%{transform:translateX(-70px)}5%{transform:translateX(-490px)}8.9%{transform:translateX(-560px)}9.7%{transform:translateX(-630px)}10.4%{transform:translateX(-700px)}12.4%{transform:translateX(-770px)}13.4%{transform:translateX(-840px)}15%{transform:translateX(-910px)}16.1%{transform:translateX(-980px)}17.3%{transform:translateX(-1050px)}18.7%{transform:translateX(-1120px)}20.6%{transform:translateX(-1190px)}21.1%{transform:translateX(-1260px)}23%{transform:translateX(-1330px)}23.7%{transform:translateX(-1400px)}25.2%{transform:translateX(-1470px)}26.5%{transform:translateX(-1540px)}27.4%{transform:translateX(-1610px)}28.3%{transform:translateX(-1680px)}29.5%{transform:translateX(-1750px)}30.4%{transform:translateX(-1890px)}30.5%{transform:translateX(-1960px)}33.6%{transform:translateX(-2100px)}34.4%{transform:translateX(-2170px)}34.8%{transform:translateX(-2240px)}35.1%{transform:translateX(-2310px)}35.4%{transform:translateX(-2380px)}35.8%{transform:translateX(-2450px)}36.1%{transform:translateX(-2520px)}36.2%{transform:translateX(-2660px)}36.3%{transform:translateX(-2800px)}36.7%{transform:translateX(-3150px)}44.2%{transform:translateX(-3220px)}44.7%{transform:translateX(-3290px)}45.8%{transform:translateX(-3360px)}46.6%{transform:translateX(-3430px)}48%{transform:translateX(-3500px)}49.2%{transform:translateX(-3570px)}50.1%{transform:translateX(-3640px)}51%{transform:translateX(-3710px)}52.3%{transform:translateX(-3780px)}53.4%{transform:translateX(-3920px)}53.5%{transform:translateX(-3990px)}54.4%{transform:translateX(-4480px)}56.9%{transform:translateX(-4620px)}57.1%{transform:translateX(-4970px)}62.1%{transform:translateX(-5040px)}62.7%{transform:translateX(-5110px)}64.5%{transform:translateX(-5180px)}65.4%{transform:translateX(-5250px)}66.7%{transform:translateX(-5320px)}67.9%{transform:translateX(-5390px)}68.8%{transform:translateX(-5460px)}69.6%{transform:translateX(-5530px)}72%{transform:translateX(-5600px)}75.1%{transform:translateX(-5670px)}76.1%{transform:translateX(-5740px)}77.4%{transform:translateX(-5810px)}78.1%{transform:translateX(-5880px)}79.2%{transform:translateX(-5950px)}80%{transform:translateX(-6020px)}82.9%{transform:translateX(-6160px)}83%{transform:translateX(-6230px)}87.9%{transform:translateX(-6370px)}88.2%{transform:translateX(-6790px)}to{transform:translateX(-6860px)}}.a{fill:#282a36}.c{fill:#ff6ac1}.d{fill:#eff0eb}.e{fill:#686868}.f{fill:#57c7ff}.g{fill:#b9c0cb}.h{fill:#ff5c57}</style><g font-size="1.67" font-family="Monaco,Consolas,Menlo,'Bitstream Vera Sans Mono','Powerline Symbols',monospace"><defs><symbol id="1"><text y="1.67" class="c">❯</text></symbol><symbol id="2"><text y="1.67" class="c">❯</text><text x="2.004" y="1.67" class="d">npm</text></symbol><symbol id="3"><text y="1.67" class="c">❯</text><text x="2.004" y="1.67" class="d">npm</text><text x="6.012" y="1.67" class="d">i</text></symbol><symbol id="4"><text y="1.67" class="c">❯</text><text x="2.004" y="1.67" class="d">npm</text><text x="6.012" y="1.67" class="d">i</text><text x="8.016" y="1.67" class="d">-g</text></symbol><symbol id="5"><text y="1.67" class="c">❯</text><text x="2.004" y="1.67" class="d">npm</text><text x="6.012" y="1.67" class="d">i</text><text x="8.016" y="1.67" class="d">-g</text><text x="11.022" y="1.67" class="d">movie-art</text></symbol><symbol id="6"><text y="1.67" class="d">⸨</text><text x="1.002" y="1.67" class="e">░░░░░░░░░░░░░░░░░░</text><text x="19.038" y="1.67" class="d">⸩</text><text x="21.042" y="1.67" class="d">⠧</text><text x="23.046" y="1.67" class="d">rollbackFailedOptional:</text>0<text x="47.094" y="1.67" class="f">verb</text><text x="52.104" y="1.67" class="c">npm-session</text><text x="64.128" y="1.67" class="d">05201</text></symbol><symbol id="7"><text y="1.67" class="d">⸨</text><path class="g" d="M1.002 0h7v2.171h-7z"/><text x="1.002" y="1.67" class="a"></text><text x="8.016" y="1.67" class="e">░░░░░░░░░░░</text><text x="19.038" y="1.67" class="d">⸩</text><text x="21.042" y="1.67" class="d">⠼</text><text x="23.046" y="1.67" class="d">extract:movie-art:</text>0<text x="42.084" y="1.67" class="f">verb</text><text x="47.094" y="1.67" class="c">lock</text><text x="52.104" y="1.67" class="d">using</text><text x="58.116" y="1.67" class="d">/Users/tmor</text></symbol><symbol id="8"><text y="1.67" class="d">/usr/local/bin/movie-art</text><text x="25.05" y="1.67" class="d">-&gt;</text><text x="28.056" y="1.67" class="d">/usr/local/lib/node_modules/movie-art/cli.</text></symbol><symbol id="9"><text y="1.67" class="d">js</text></symbol><symbol id="10"><text y="1.67" class="d">+</text><text x="2.004" y="1.67" class="d">movie-art@1.0.7</text></symbol><symbol id="11"><text y="1.67" class="d">added</text><text x="6.012" y="1.67" class="d">1</text><text x="8.016" y="1.67" class="d">package</text><text x="16.032" y="1.67" class="d">in</text><text x="19.038" y="1.67" class="d">0.447s</text></symbol><symbol id="12"><text y="1.67" class="c">❯</text><text x="2.004" y="1.67" class="d">movie-art</text></symbol><symbol id="13"><text y="1.67" class="d">Get</text><text x="4.008" y="1.67" class="d">a</text><text x="6.012" y="1.67" class="d">movie</text><text x="12.024" y="1.67" class="d">poster</text><text x="19.038" y="1.67" class="d">image</text><text x="25.05" y="1.67" class="d">url</text><text x="29.058" y="1.67" class="d">in</text><text x="32.064" y="1.67" class="d">node:</text><text x="38.076" y="1.67" class="d">Oceans</text><text x="45.09" y="1.67" class="d">Eleven</text><text x="52.104" y="1.67" class="d">➔</text><text x="54.108" y="1.67" class="d">http://path/to/o</text></symbol><symbol id="14"><text y="1.67" class="d">ceans_eleven_poster.jpg</text></symbol><symbol id="15"><text y="1.67" class="d">Usage</text></symbol><symbol id="16"><text x="2.004" y="1.67" class="d">$</text><text x="4.008" y="1.67" class="d">movie-art</text><text x="14.028" y="1.67" class="d">movie</text><text x="20.04" y="1.67" class="d">[year]</text><text x="27.054" y="1.67" class="d">[size]</text><text x="34.068" y="1.67" class="d">[type]</text></symbol><symbol id="17"><text y="1.67" class="d">Example</text></symbol><symbol id="18"><text x="2.004" y="1.67" class="d">$</text><text x="4.008" y="1.67" class="d">movie-art</text><text x="14.028" y="1.67" class="d">&apos;Oceans</text><text x="22.044" y="1.67" class="d">Eleven&apos;</text><text x="30.06" y="1.67" class="d">1960</text></symbol><symbol id="19"><text x="2.004" y="1.67" class="d">http://path/to/oceans_eleven_poster_1960.jpg</text></symbol><symbol id="20"><text y="1.67" class="d">Available</text><text x="10.02" y="1.67" class="d">sizes:</text><text x="17.034" y="1.67" class="d">w92,w154,w185,w342,w500,w780,original</text></symbol><symbol id="21"><text y="1.67" class="h">❯</text></symbol><symbol id="22"><text y="1.67" class="h">❯</text><text x="2.004" y="1.67" class="d">movie-art</text></symbol><symbol id="23"><text y="1.67" class="h">❯</text><text x="2.004" y="1.67" class="d">movie-art</text><text x="12.024" y="1.67" class="d">crash</text></symbol><symbol id="24"><text y="1.67" class="d">http://image.tmdb.org/t/p/original/pG8LL4LYMCr5uikhx9rewrW8352.jpg</text></symbol><symbol id="a"><path fill="transparent" d="M0 0h70v13H0z"/></symbol><symbol id="b"><path fill="#97979b" d="M0 0h1.102v2.171H0z"/></symbol></defs><path class="a" d="M0 0h70v28.223H0z"/><g style="animation-duration:15.976872s;animation-iteration-count:infinite;animation-name:k;animation-timing-function:steps(1,end)"><svg width="6930"><svg><use xlink:href="#a"/><use xlink:href="#b" x="-.004"/></svg><svg x="70"><use xlink:href="#a"/><use xlink:href="#b" x="-.004"/></svg><svg x="140"><use xlink:href="#a"/><use xlink:href="#b" x="-.004" y="4.317"/></svg><svg x="210"><use xlink:href="#a"/><use xlink:href="#b" x="-.004" y="4.317"/></svg><svg x="280"><use xlink:href="#a"/><use xlink:href="#b" x="-.004" y="4.317"/></svg><svg x="350"><use xlink:href="#a"/><use xlink:href="#b" x="1.996" y="4.317"/><use xlink:href="#1" y="4.342"/></svg><svg x="420"><use xlink:href="#a"/><use xlink:href="#b" x="1.996" y="4.317"/><use xlink:href="#1" y="4.342"/></svg><svg x="490"><use xlink:href="#a"/><use xlink:href="#b" x="1.996" y="4.317"/><use xlink:href="#1" y="4.342"/></svg><svg x="560"><use xlink:href="#a"/><use xlink:href="#b" x="2.996" y="4.317"/><text y="6.012" class="c">❯</text><text x="2.004" y="6.012" class="d">n</text></svg><svg x="630"><use xlink:href="#a"/><use xlink:href="#b" x="3.996" y="4.317"/><text y="6.012" class="c">❯</text><text x="2.004" y="6.012" class="d">np</text></svg><svg x="700"><use xlink:href="#a"/><use xlink:href="#b" x="4.996" y="4.317"/><use xlink:href="#2" y="4.342"/></svg><svg x="770"><use xlink:href="#a"/><use xlink:href="#b" x="5.996" y="4.317"/><use xlink:href="#2" y="4.342"/></svg><svg x="840"><use xlink:href="#a"/><use xlink:href="#b" x="6.996" y="4.317"/><use xlink:href="#3" y="4.342"/></svg><svg x="910"><use xlink:href="#a"/><use xlink:href="#b" x="7.996" y="4.317"/><use xlink:href="#3" y="4.342"/></svg><svg x="980"><use xlink:href="#a"/><use xlink:href="#b" x="8.996" y="4.317"/><text y="6.012" class="c">❯</text><text x="2.004" y="6.012" class="d">npm</text><text x="6.012" y="6.012" class="d">i</text><text x="8.016" y="6.012" class="d">-</text></svg><svg x="1050"><use xlink:href="#a"/><use xlink:href="#b" x="9.996" y="4.317"/><use xlink:href="#4" y="4.342"/></svg><svg x="1120"><use xlink:href="#a"/><use xlink:href="#b" x="10.996" y="4.317"/><use xlink:href="#4" y="4.342"/></svg><svg x="1190"><use xlink:href="#a"/><use xlink:href="#b" x="11.996" y="4.317"/><text y="6.012" class="c">❯</text><text x="2.004" y="6.012" class="d">npm</text><text x="6.012" y="6.012" class="d">i</text><text x="8.016" y="6.012" class="d">-g</text><text x="11.022" y="6.012" class="d">m</text></svg><svg x="1260"><use xlink:href="#a"/><use xlink:href="#b" x="12.996" y="4.317"/><text y="6.012" class="c">❯</text><text x="2.004" y="6.012" class="d">npm</text><text x="6.012" y="6.012" class="d">i</text><text x="8.016" y="6.012" class="d">-g</text><text x="11.022" y="6.012" class="d">mo</text></svg><svg x="1330"><use xlink:href="#a"/><use xlink:href="#b" x="13.996" y="4.317"/><text y="6.012" class="c">❯</text><text x="2.004" y="6.012" class="d">npm</text><text x="6.012" y="6.012" class="d">i</text><text x="8.016" y="6.012" class="d">-g</text><text x="11.022" y="6.012" class="d">mov</text></svg><svg x="1400"><use xlink:href="#a"/><use xlink:href="#b" x="14.996" y="4.317"/><text y="6.012" class="c">❯</text><text x="2.004" y="6.012" class="d">npm</text><text x="6.012" y="6.012" class="d">i</text><text x="8.016" y="6.012" class="d">-g</text><text x="11.022" y="6.012" class="d">movi</text></svg><svg x="1470"><use xlink:href="#a"/><use xlink:href="#b" x="15.996" y="4.317"/><text y="6.012" class="c">❯</text><text x="2.004" y="6.012" class="d">npm</text><text x="6.012" y="6.012" class="d">i</text><text x="8.016" y="6.012" class="d">-g</text><text x="11.022" y="6.012" class="d">movie</text></svg><svg x="1540"><use xlink:href="#a"/><use xlink:href="#b" x="16.996" y="4.317"/><text y="6.012" class="c">❯</text><text x="2.004" y="6.012" class="d">npm</text><text x="6.012" y="6.012" class="d">i</text><text x="8.016" y="6.012" class="d">-g</text><text x="11.022" y="6.012" class="d">movie-</text></svg><svg x="1610"><use xlink:href="#a"/><use xlink:href="#b" x="17.996" y="4.317"/><text y="6.012" class="c">❯</text><text x="2.004" y="6.012" class="d">npm</text><text x="6.012" y="6.012" class="d">i</text><text x="8.016" y="6.012" class="d">-g</text><text x="11.022" y="6.012" class="d">movie-a</text></svg><svg x="1680"><use xlink:href="#a"/><use xlink:href="#b" x="18.996" y="4.317"/><text y="6.012" class="c">❯</text><text x="2.004" y="6.012" class="d">npm</text><text x="6.012" y="6.012" class="d">i</text><text x="8.016" y="6.012" class="d">-g</text><text x="11.022" y="6.012" class="d">movie-ar</text></svg><svg x="1750"><use xlink:href="#a"/><use xlink:href="#b" x="19.996" y="4.317"/><use xlink:href="#5" y="4.342"/></svg><svg x="1820"><use xlink:href="#a"/><use xlink:href="#b" x="19.996" y="4.317"/><use xlink:href="#5" y="4.342"/></svg><svg x="1890"><use xlink:href="#a"/><use xlink:href="#b" x="-.004" y="6.488"/><use xlink:href="#5" y="4.342"/></svg><svg x="1960"><use xlink:href="#a"/><use xlink:href="#b" x="-.004" y="6.488"/><use xlink:href="#5" y="4.342"/></svg><svg x="2030"><use xlink:href="#a"/><use xlink:href="#5" y="4.342"/></svg><svg x="2100"><use xlink:href="#a"/><use xlink:href="#5" y="4.342"/><use xlink:href="#6" y="6.513"/></svg><svg x="2170"><use xlink:href="#a"/><use xlink:href="#5" y="4.342"/><use xlink:href="#6" y="6.513"/></svg><svg x="2240"><use xlink:href="#a"/><use xlink:href="#5" y="4.342"/><use xlink:href="#7" y="6.513"/></svg><svg x="2310"><use xlink:href="#a"/><use xlink:href="#5" y="4.342"/><use xlink:href="#7" y="6.513"/></svg><svg x="2380"><use xlink:href="#a"/><use xlink:href="#5" y="4.342"/><use xlink:href="#7" y="6.513"/></svg><svg x="2450"><use xlink:href="#a"/><use xlink:href="#5" y="4.342"/><use xlink:href="#7" y="6.513"/></svg><svg x="2520"><use xlink:href="#a"/><use xlink:href="#5" y="4.342"/><text y="8.183" class="d">⸨</text><path class="g" d="M1.002 6.513h12v2.171h-12z"/><text x="1.002" y="8.183" class="a"></text><text x="13.026" y="8.183" class="e">░░░░░░</text><text x="19.038" y="8.183" class="d">⸩</text><text x="21.042" y="8.183" class="d">⠙</text><text x="23.046" y="8.183" class="d">refresh-package-json:movie-art:</text><path class="g" d="M55.11 6.513h4v2.171h-4z"/><text x="55.11" y="8.183" class="a">sill</text><text x="60.12" y="8.183" class="c">finalize</text></svg><svg x="2590"><use xlink:href="#a"/><use xlink:href="#b" x="-.004" y="6.488"/><use xlink:href="#5" y="4.342"/></svg><svg x="2660"><use xlink:href="#a"/><use xlink:href="#b" x="-.004" y="10.83"/><use xlink:href="#5" y="4.342"/><use xlink:href="#8" y="6.513"/><use xlink:href="#9" y="8.684"/></svg><svg x="2730"><use xlink:href="#a"/><use xlink:href="#b" x="-.004" y="15.172"/><use xlink:href="#5" y="4.342"/><use xlink:href="#8" y="6.513"/><use xlink:href="#9" y="8.684"/><use xlink:href="#10" y="10.855"/><use xlink:href="#11" y="13.026"/></svg><svg x="2800"><use xlink:href="#a"/><use xlink:href="#b" x="-.004" y="15.172"/><use xlink:href="#5" y="4.342"/><use xlink:href="#8" y="6.513"/><use xlink:href="#9" y="8.684"/><use xlink:href="#10" y="10.855"/><use xlink:href="#11" y="13.026"/></svg><svg x="2870"><use xlink:href="#a"/><use xlink:href="#b" x="-.004" y="19.514"/><use xlink:href="#5" y="4.342"/><use xlink:href="#8" y="6.513"/><use xlink:href="#9" y="8.684"/><use xlink:href="#10" y="10.855"/><use xlink:href="#11" y="13.026"/></svg><svg x="2940"><use xlink:href="#a"/><use xlink:href="#b" x="-.004" y="19.514"/><use xlink:href="#5" y="4.342"/><use xlink:href="#8" y="6.513"/><use xlink:href="#9" y="8.684"/><use xlink:href="#10" y="10.855"/><use xlink:href="#11" y="13.026"/></svg><svg x="3010"><use xlink:href="#a"/><use xlink:href="#b" x="1.996" y="19.514"/><use xlink:href="#5" y="4.342"/><use xlink:href="#8" y="6.513"/><use xlink:href="#9" y="8.684"/><use xlink:href="#10" y="10.855"/><use xlink:href="#11" y="13.026"/><use xlink:href="#1" y="19.539"/></svg><svg x="3080"><use xlink:href="#a"/><use xlink:href="#b" x="1.996" y="19.514"/><use xlink:href="#5" y="4.342"/><use xlink:href="#8" y="6.513"/><use xlink:href="#9" y="8.684"/><use xlink:href="#10" y="10.855"/><use xlink:href="#11" y="13.026"/><use xlink:href="#1" y="19.539"/></svg><svg x="3150"><use xlink:href="#a"/><use xlink:href="#b" x="1.996" y="19.514"/><use xlink:href="#5" y="4.342"/><use xlink:href="#8" y="6.513"/><use xlink:href="#9" y="8.684"/><use xlink:href="#10" y="10.855"/><use xlink:href="#11" y="13.026"/><use xlink:href="#1" y="19.539"/></svg><svg x="3220"><use xlink:href="#a"/><use xlink:href="#b" x="2.996" y="19.514"/><use xlink:href="#5" y="4.342"/><use xlink:href="#8" y="6.513"/><use xlink:href="#9" y="8.684"/><use xlink:href="#10" y="10.855"/><use xlink:href="#11" y="13.026"/><text y="21.209" class="c">❯</text><text x="2.004" y="21.209" class="d">m</text></svg><svg x="3290"><use xlink:href="#a"/><use xlink:href="#b" x="3.996" y="19.514"/><use xlink:href="#5" y="4.342"/><use xlink:href="#8" y="6.513"/><use xlink:href="#9" y="8.684"/><use xlink:href="#10" y="10.855"/><use xlink:href="#11" y="13.026"/><text y="21.209" class="c">❯</text><text x="2.004" y="21.209" class="d">mo</text></svg><svg x="3360"><use xlink:href="#a"/><use xlink:href="#b" x="4.996" y="19.514"/><use xlink:href="#5" y="4.342"/><use xlink:href="#8" y="6.513"/><use xlink:href="#9" y="8.684"/><use xlink:href="#10" y="10.855"/><use xlink:href="#11" y="13.026"/><text y="21.209" class="c">❯</text><text x="2.004" y="21.209" class="d">mov</text></svg><svg x="3430"><use xlink:href="#a"/><use xlink:href="#b" x="5.996" y="19.514"/><use xlink:href="#5" y="4.342"/><use xlink:href="#8" y="6.513"/><use xlink:href="#9" y="8.684"/><use xlink:href="#10" y="10.855"/><use xlink:href="#11" y="13.026"/><text y="21.209" class="c">❯</text><text x="2.004" y="21.209" class="d">movi</text></svg><svg x="3500"><use xlink:href="#a"/><use xlink:href="#b" x="6.996" y="19.514"/><use xlink:href="#5" y="4.342"/><use xlink:href="#8" y="6.513"/><use xlink:href="#9" y="8.684"/><use xlink:href="#10" y="10.855"/><use xlink:href="#11" y="13.026"/><text y="21.209" class="c">❯</text><text x="2.004" y="21.209" class="d">movie</text></svg><svg x="3570"><use xlink:href="#a"/><use xlink:href="#b" x="7.996" y="19.514"/><use xlink:href="#5" y="4.342"/><use xlink:href="#8" y="6.513"/><use xlink:href="#9" y="8.684"/><use xlink:href="#10" y="10.855"/><use xlink:href="#11" y="13.026"/><text y="21.209" class="c">❯</text><text x="2.004" y="21.209" class="d">movie-</text></svg><svg x="3640"><use xlink:href="#a"/><use xlink:href="#b" x="8.996" y="19.514"/><use xlink:href="#5" y="4.342"/><use xlink:href="#8" y="6.513"/><use xlink:href="#9" y="8.684"/><use xlink:href="#10" y="10.855"/><use xlink:href="#11" y="13.026"/><text y="21.209" class="c">❯</text><text x="2.004" y="21.209" class="d">movie-a</text></svg><svg x="3710"><use xlink:href="#a"/><use xlink:href="#b" x="9.996" y="19.514"/><use xlink:href="#5" y="4.342"/><use xlink:href="#8" y="6.513"/><use xlink:href="#9" y="8.684"/><use xlink:href="#10" y="10.855"/><use xlink:href="#11" y="13.026"/><text y="21.209" class="c">❯</text><text x="2.004" y="21.209" class="d">movie-ar</text></svg><svg x="3780"><use xlink:href="#a"/><use xlink:href="#b" x="10.996" y="19.514"/><use xlink:href="#5" y="4.342"/><use xlink:href="#8" y="6.513"/><use xlink:href="#9" y="8.684"/><use xlink:href="#10" y="10.855"/><use xlink:href="#11" y="13.026"/><use xlink:href="#12" y="19.539"/></svg><svg x="3850"><use xlink:href="#a"/><use xlink:href="#b" x="10.996" y="19.514"/><use xlink:href="#5" y="4.342"/><use xlink:href="#8" y="6.513"/><use xlink:href="#9" y="8.684"/><use xlink:href="#10" y="10.855"/><use xlink:href="#11" y="13.026"/><use xlink:href="#12" y="19.539"/></svg><svg x="3920"><use xlink:href="#a"/><use xlink:href="#b" x="-.004" y="21.685"/><use xlink:href="#5" y="4.342"/><use xlink:href="#8" y="6.513"/><use xlink:href="#9" y="8.684"/><use xlink:href="#10" y="10.855"/><use xlink:href="#11" y="13.026"/><use xlink:href="#12" y="19.539"/></svg><svg x="3990"><use xlink:href="#a"/><use xlink:href="#b" x="-.004" y="21.685"/><use xlink:href="#5" y="4.342"/><use xlink:href="#8" y="6.513"/><use xlink:href="#9" y="8.684"/><use xlink:href="#10" y="10.855"/><use xlink:href="#11" y="13.026"/><use xlink:href="#12" y="19.539"/></svg><svg x="4060"><use xlink:href="#a"/><use xlink:href="#b" x="-.004" y="26.027"/><use xlink:href="#5" y="4.342"/><use xlink:href="#8" y="6.513"/><use xlink:href="#9" y="8.684"/><use xlink:href="#10" y="10.855"/><use xlink:href="#11" y="13.026"/><use xlink:href="#12" y="19.539"/><use xlink:href="#13" y="21.71"/><use xlink:href="#14" y="23.881"/></svg><svg x="4130"><use xlink:href="#a"/><use xlink:href="#b" x="-.004" y="26.027"/><use xlink:href="#5" y="2.171"/><use xlink:href="#8" y="4.342"/><use xlink:href="#9" y="6.513"/><use xlink:href="#10" y="8.684"/><use xlink:href="#11" y="10.855"/><use xlink:href="#12" y="17.368"/><use xlink:href="#13" y="19.539"/><use xlink:href="#14" y="21.71"/></svg><svg x="4200"><use xlink:href="#a"/><use xlink:href="#b" x="-.004" y="26.027"/><use xlink:href="#5"/><use xlink:href="#8" y="2.171"/><use xlink:href="#9" y="4.342"/><use xlink:href="#10" y="6.513"/><use xlink:href="#11" y="8.684"/><use xlink:href="#12" y="15.197"/><use xlink:href="#13" y="17.368"/><use xlink:href="#14" y="19.539"/><use xlink:href="#15" y="23.881"/></svg><svg x="4270"><use xlink:href="#a"/><use xlink:href="#b" x="-.004" y="26.027"/><use xlink:href="#8"/><use xlink:href="#9" y="2.171"/><use xlink:href="#10" y="4.342"/><use xlink:href="#11" y="6.513"/><use xlink:href="#12" y="13.026"/><use xlink:href="#13" y="15.197"/><use xlink:href="#14" y="17.368"/><use xlink:href="#15" y="21.71"/><use xlink:href="#16" y="23.881"/></svg><svg x="4340"><use xlink:href="#a"/><use xlink:href="#b" x="-.004" y="26.027"/><use xlink:href="#9"/><use xlink:href="#10" y="2.171"/><use xlink:href="#11" y="4.342"/><use xlink:href="#12" y="10.855"/><use xlink:href="#13" y="13.026"/><use xlink:href="#14" y="15.197"/><use xlink:href="#15" y="19.539"/><use xlink:href="#16" y="21.71"/></svg><svg x="4410"><use xlink:href="#a"/><use xlink:href="#b" x="-.004" y="26.027"/><use xlink:href="#11"/><use xlink:href="#12" y="6.513"/><use xlink:href="#13" y="8.684"/><use xlink:href="#14" y="10.855"/><use xlink:href="#15" y="15.197"/><use xlink:href="#16" y="17.368"/><use xlink:href="#17" y="21.71"/><use xlink:href="#18" y="23.881"/></svg><svg x="4480"><use xlink:href="#a"/><use xlink:href="#b" x="-.004" y="26.027"/><use xlink:href="#12" y="4.342"/><use xlink:href="#13" y="6.513"/><use xlink:href="#14" y="8.684"/><use xlink:href="#15" y="13.026"/><use xlink:href="#16" y="15.197"/><use xlink:href="#17" y="19.539"/><use xlink:href="#18" y="21.71"/><use xlink:href="#19" y="23.881"/></svg><svg x="4550"><use xlink:href="#a"/><use xlink:href="#b" x="-.004" y="26.027"/><use xlink:href="#12" y="2.171"/><use xlink:href="#13" y="4.342"/><use xlink:href="#14" y="6.513"/><use xlink:href="#15" y="10.855"/><use xlink:href="#16" y="13.026"/><use xlink:href="#17" y="17.368"/><use xlink:href="#18" y="19.539"/><use xlink:href="#19" y="21.71"/><use xlink:href="#20" y="23.881"/></svg><svg x="4620"><use xlink:href="#a"/><use xlink:href="#b" x="-.004" y="26.027"/><use xlink:href="#12" y="2.171"/><use xlink:href="#13" y="4.342"/><use xlink:href="#14" y="6.513"/><use xlink:href="#15" y="10.855"/><use xlink:href="#16" y="13.026"/><use xlink:href="#17" y="17.368"/><use xlink:href="#18" y="19.539"/><use xlink:href="#19" y="21.71"/><use xlink:href="#20" y="23.881"/></svg><svg x="4690"><use xlink:href="#a"/><use xlink:href="#b" x="-.004" y="26.027"/><use xlink:href="#13"/><use xlink:href="#14" y="2.171"/><use xlink:href="#15" y="6.513"/><use xlink:href="#16" y="8.684"/><use xlink:href="#17" y="13.026"/><use xlink:href="#18" y="15.197"/><use xlink:href="#19" y="17.368"/><use xlink:href="#20" y="19.539"/></svg><svg x="4760"><use xlink:href="#a"/><use xlink:href="#b" x="-.004" y="26.027"/><use xlink:href="#13"/><use xlink:href="#14" y="2.171"/><use xlink:href="#15" y="6.513"/><use xlink:href="#16" y="8.684"/><use xlink:href="#17" y="13.026"/><use xlink:href="#18" y="15.197"/><use xlink:href="#19" y="17.368"/><use xlink:href="#20" y="19.539"/></svg><svg x="4830"><use xlink:href="#a"/><use xlink:href="#b" x="1.996" y="26.027"/><use xlink:href="#13"/><use xlink:href="#14" y="2.171"/><use xlink:href="#15" y="6.513"/><use xlink:href="#16" y="8.684"/><use xlink:href="#17" y="13.026"/><use xlink:href="#18" y="15.197"/><use xlink:href="#19" y="17.368"/><use xlink:href="#20" y="19.539"/><use xlink:href="#21" y="26.052"/></svg><svg x="4900"><use xlink:href="#a"/><use xlink:href="#b" x="1.996" y="26.027"/><use xlink:href="#13"/><use xlink:href="#14" y="2.171"/><use xlink:href="#15" y="6.513"/><use xlink:href="#16" y="8.684"/><use xlink:href="#17" y="13.026"/><use xlink:href="#18" y="15.197"/><use xlink:href="#19" y="17.368"/><use xlink:href="#20" y="19.539"/><use xlink:href="#21" y="26.052"/></svg><svg x="4970"><use xlink:href="#a"/><use xlink:href="#b" x="1.996" y="26.027"/><use xlink:href="#13"/><use xlink:href="#14" y="2.171"/><use xlink:href="#15" y="6.513"/><use xlink:href="#16" y="8.684"/><use xlink:href="#17" y="13.026"/><use xlink:href="#18" y="15.197"/><use xlink:href="#19" y="17.368"/><use xlink:href="#20" y="19.539"/><use xlink:href="#21" y="26.052"/></svg><svg x="5040"><use xlink:href="#a"/><use xlink:href="#b" x="2.996" y="26.027"/><use xlink:href="#13"/><use xlink:href="#14" y="2.171"/><use xlink:href="#15" y="6.513"/><use xlink:href="#16" y="8.684"/><use xlink:href="#17" y="13.026"/><use xlink:href="#18" y="15.197"/><use xlink:href="#19" y="17.368"/><use xlink:href="#20" y="19.539"/><text y="27.722" class="h">❯</text><text x="2.004" y="27.722" class="d">m</text></svg><svg x="5110"><use xlink:href="#a"/><use xlink:href="#b" x="3.996" y="26.027"/><use xlink:href="#13"/><use xlink:href="#14" y="2.171"/><use xlink:href="#15" y="6.513"/><use xlink:href="#16" y="8.684"/><use xlink:href="#17" y="13.026"/><use xlink:href="#18" y="15.197"/><use xlink:href="#19" y="17.368"/><use xlink:href="#20" y="19.539"/><text y="27.722" class="h">❯</text><text x="2.004" y="27.722" class="d">mo</text></svg><svg x="5180"><use xlink:href="#a"/><use xlink:href="#b" x="4.996" y="26.027"/><use xlink:href="#13"/><use xlink:href="#14" y="2.171"/><use xlink:href="#15" y="6.513"/><use xlink:href="#16" y="8.684"/><use xlink:href="#17" y="13.026"/><use xlink:href="#18" y="15.197"/><use xlink:href="#19" y="17.368"/><use xlink:href="#20" y="19.539"/><text y="27.722" class="h">❯</text><text x="2.004" y="27.722" class="d">mov</text></svg><svg x="5250"><use xlink:href="#a"/><use xlink:href="#b" x="5.996" y="26.027"/><use xlink:href="#13"/><use xlink:href="#14" y="2.171"/><use xlink:href="#15" y="6.513"/><use xlink:href="#16" y="8.684"/><use xlink:href="#17" y="13.026"/><use xlink:href="#18" y="15.197"/><use xlink:href="#19" y="17.368"/><use xlink:href="#20" y="19.539"/><text y="27.722" class="h">❯</text><text x="2.004" y="27.722" class="d">movi</text></svg><svg x="5320"><use xlink:href="#a"/><use xlink:href="#b" x="6.996" y="26.027"/><use xlink:href="#13"/><use xlink:href="#14" y="2.171"/><use xlink:href="#15" y="6.513"/><use xlink:href="#16" y="8.684"/><use xlink:href="#17" y="13.026"/><use xlink:href="#18" y="15.197"/><use xlink:href="#19" y="17.368"/><use xlink:href="#20" y="19.539"/><text y="27.722" class="h">❯</text><text x="2.004" y="27.722" class="d">movie</text></svg><svg x="5390"><use xlink:href="#a"/><use xlink:href="#b" x="7.996" y="26.027"/><use xlink:href="#13"/><use xlink:href="#14" y="2.171"/><use xlink:href="#15" y="6.513"/><use xlink:href="#16" y="8.684"/><use xlink:href="#17" y="13.026"/><use xlink:href="#18" y="15.197"/><use xlink:href="#19" y="17.368"/><use xlink:href="#20" y="19.539"/><text y="27.722" class="h">❯</text><text x="2.004" y="27.722" class="d">movie-</text></svg><svg x="5460"><use xlink:href="#a"/><use xlink:href="#b" x="8.996" y="26.027"/><use xlink:href="#13"/><use xlink:href="#14" y="2.171"/><use xlink:href="#15" y="6.513"/><use xlink:href="#16" y="8.684"/><use xlink:href="#17" y="13.026"/><use xlink:href="#18" y="15.197"/><use xlink:href="#19" y="17.368"/><use xlink:href="#20" y="19.539"/><text y="27.722" class="h">❯</text><text x="2.004" y="27.722" class="d">movie-a</text></svg><svg x="5530"><use xlink:href="#a"/><use xlink:href="#b" x="9.996" y="26.027"/><use xlink:href="#13"/><use xlink:href="#14" y="2.171"/><use xlink:href="#15" y="6.513"/><use xlink:href="#16" y="8.684"/><use xlink:href="#17" y="13.026"/><use xlink:href="#18" y="15.197"/><use xlink:href="#19" y="17.368"/><use xlink:href="#20" y="19.539"/><text y="27.722" class="h">❯</text><text x="2.004" y="27.722" class="d">movie-ar</text></svg><svg x="5600"><use xlink:href="#a"/><use xlink:href="#b" x="10.996" y="26.027"/><use xlink:href="#13"/><use xlink:href="#14" y="2.171"/><use xlink:href="#15" y="6.513"/><use xlink:href="#16" y="8.684"/><use xlink:href="#17" y="13.026"/><use xlink:href="#18" y="15.197"/><use xlink:href="#19" y="17.368"/><use xlink:href="#20" y="19.539"/><use xlink:href="#22" y="26.052"/></svg><svg x="5670"><use xlink:href="#a"/><use xlink:href="#b" x="11.996" y="26.027"/><use xlink:href="#13"/><use xlink:href="#14" y="2.171"/><use xlink:href="#15" y="6.513"/><use xlink:href="#16" y="8.684"/><use xlink:href="#17" y="13.026"/><use xlink:href="#18" y="15.197"/><use xlink:href="#19" y="17.368"/><use xlink:href="#20" y="19.539"/><use xlink:href="#22" y="26.052"/></svg><svg x="5740"><use xlink:href="#a"/><use xlink:href="#b" x="12.996" y="26.027"/><use xlink:href="#13"/><use xlink:href="#14" y="2.171"/><use xlink:href="#15" y="6.513"/><use xlink:href="#16" y="8.684"/><use xlink:href="#17" y="13.026"/><use xlink:href="#18" y="15.197"/><use xlink:href="#19" y="17.368"/><use xlink:href="#20" y="19.539"/><text y="27.722" class="h">❯</text><text x="2.004" y="27.722" class="d">movie-art</text><text x="12.024" y="27.722" class="d">c</text></svg><svg x="5810"><use xlink:href="#a"/><use xlink:href="#b" x="13.996" y="26.027"/><use xlink:href="#13"/><use xlink:href="#14" y="2.171"/><use xlink:href="#15" y="6.513"/><use xlink:href="#16" y="8.684"/><use xlink:href="#17" y="13.026"/><use xlink:href="#18" y="15.197"/><use xlink:href="#19" y="17.368"/><use xlink:href="#20" y="19.539"/><text y="27.722" class="h">❯</text><text x="2.004" y="27.722" class="d">movie-art</text><text x="12.024" y="27.722" class="d">cr</text></svg><svg x="5880"><use xlink:href="#a"/><use xlink:href="#b" x="14.996" y="26.027"/><use xlink:href="#13"/><use xlink:href="#14" y="2.171"/><use xlink:href="#15" y="6.513"/><use xlink:href="#16" y="8.684"/><use xlink:href="#17" y="13.026"/><use xlink:href="#18" y="15.197"/><use xlink:href="#19" y="17.368"/><use xlink:href="#20" y="19.539"/><text y="27.722" class="h">❯</text><text x="2.004" y="27.722" class="d">movie-art</text><text x="12.024" y="27.722" class="d">cra</text></svg><svg x="5950"><use xlink:href="#a"/><use xlink:href="#b" x="15.996" y="26.027"/><use xlink:href="#13"/><use xlink:href="#14" y="2.171"/><use xlink:href="#15" y="6.513"/><use xlink:href="#16" y="8.684"/><use xlink:href="#17" y="13.026"/><use xlink:href="#18" y="15.197"/><use xlink:href="#19" y="17.368"/><use xlink:href="#20" y="19.539"/><text y="27.722" class="h">❯</text><text x="2.004" y="27.722" class="d">movie-art</text><text x="12.024" y="27.722" class="d">cras</text></svg><svg x="6020"><use xlink:href="#a"/><use xlink:href="#b" x="16.996" y="26.027"/><use xlink:href="#13"/><use xlink:href="#14" y="2.171"/><use xlink:href="#15" y="6.513"/><use xlink:href="#16" y="8.684"/><use xlink:href="#17" y="13.026"/><use xlink:href="#18" y="15.197"/><use xlink:href="#19" y="17.368"/><use xlink:href="#20" y="19.539"/><use xlink:href="#23" y="26.052"/></svg><svg x="6090"><use xlink:href="#a"/><use xlink:href="#b" x="16.996" y="26.027"/><use xlink:href="#13"/><use xlink:href="#14" y="2.171"/><use xlink:href="#15" y="6.513"/><use xlink:href="#16" y="8.684"/><use xlink:href="#17" y="13.026"/><use xlink:href="#18" y="15.197"/><use xlink:href="#19" y="17.368"/><use xlink:href="#20" y="19.539"/><use xlink:href="#23" y="26.052"/></svg><svg x="6160"><use xlink:href="#a"/><use xlink:href="#b" x="-.004" y="26.027"/><use xlink:href="#14"/><use xlink:href="#15" y="4.342"/><use xlink:href="#16" y="6.513"/><use xlink:href="#17" y="10.855"/><use xlink:href="#18" y="13.026"/><use xlink:href="#19" y="15.197"/><use xlink:href="#20" y="17.368"/><use xlink:href="#23" y="23.881"/></svg><svg x="6230"><use xlink:href="#a"/><use xlink:href="#b" x="-.004" y="26.027"/><use xlink:href="#14"/><use xlink:href="#15" y="4.342"/><use xlink:href="#16" y="6.513"/><use xlink:href="#17" y="10.855"/><use xlink:href="#18" y="13.026"/><use xlink:href="#19" y="15.197"/><use xlink:href="#20" y="17.368"/><use xlink:href="#23" y="23.881"/></svg><svg x="6300"><use xlink:href="#a"/><use xlink:href="#b" x="-.004" y="26.027"/><use xlink:href="#15" y="2.171"/><use xlink:href="#16" y="4.342"/><use xlink:href="#17" y="8.684"/><use xlink:href="#18" y="10.855"/><use xlink:href="#19" y="13.026"/><use xlink:href="#20" y="15.197"/><use xlink:href="#23" y="21.71"/><use xlink:href="#24" y="23.881"/></svg><svg x="6370"><use xlink:href="#a"/><use xlink:href="#b" x="-.004" y="26.027"/><use xlink:href="#15" y="2.171"/><use xlink:href="#16" y="4.342"/><use xlink:href="#17" y="8.684"/><use xlink:href="#18" y="10.855"/><use xlink:href="#19" y="13.026"/><use xlink:href="#20" y="15.197"/><use xlink:href="#23" y="21.71"/><use xlink:href="#24" y="23.881"/></svg><svg x="6440"><use xlink:href="#a"/><use xlink:href="#b" x="-.004" y="26.027"/><use xlink:href="#16"/><use xlink:href="#17" y="4.342"/><use xlink:href="#18" y="6.513"/><use xlink:href="#19" y="8.684"/><use xlink:href="#20" y="10.855"/><use xlink:href="#23" y="17.368"/><use xlink:href="#24" y="19.539"/></svg><svg x="6510"><use xlink:href="#a"/><use xlink:href="#b" x="-.004" y="26.027"/><use xlink:href="#16"/><use xlink:href="#17" y="4.342"/><use xlink:href="#18" y="6.513"/><use xlink:href="#19" y="8.684"/><use xlink:href="#20" y="10.855"/><use xlink:href="#23" y="17.368"/><use xlink:href="#24" y="19.539"/></svg><svg x="6580"><use xlink:href="#a"/><use xlink:href="#b" x="-.004" y="26.027"/><use xlink:href="#16"/><use xlink:href="#17" y="4.342"/><use xlink:href="#18" y="6.513"/><use xlink:href="#19" y="8.684"/><use xlink:href="#20" y="10.855"/><use xlink:href="#23" y="17.368"/><use xlink:href="#24" y="19.539"/></svg><svg x="6650"><use xlink:href="#a"/><use xlink:href="#b" x="1.996" y="26.027"/><use xlink:href="#16"/><use xlink:href="#17" y="4.342"/><use xlink:href="#18" y="6.513"/><use xlink:href="#19" y="8.684"/><use xlink:href="#20" y="10.855"/><use xlink:href="#23" y="17.368"/><use xlink:href="#24" y="19.539"/><use xlink:href="#1" y="26.052"/></svg><svg x="6720"><use xlink:href="#a"/><use xlink:href="#b" x="1.996" y="26.027"/><use xlink:href="#16"/><use xlink:href="#17" y="4.342"/><use xlink:href="#18" y="6.513"/><use xlink:href="#19" y="8.684"/><use xlink:href="#20" y="10.855"/><use xlink:href="#23" y="17.368"/><use xlink:href="#24" y="19.539"/><use xlink:href="#1" y="26.052"/></svg><svg x="6790"><use xlink:href="#a"/><use xlink:href="#b" x="1.996" y="26.027"/><use xlink:href="#16"/><use xlink:href="#17" y="4.342"/><use xlink:href="#18" y="6.513"/><use xlink:href="#19" y="8.684"/><use xlink:href="#20" y="10.855"/><use xlink:href="#23" y="17.368"/><use xlink:href="#24" y="19.539"/><use xlink:href="#1" y="26.052"/></svg><svg x="6860"><use xlink:href="#a"/><use xlink:href="#b" x="-.004" y="26.027"/><use xlink:href="#17" y="2.171"/><use xlink:href="#18" y="4.342"/><use xlink:href="#19" y="6.513"/><use xlink:href="#20" y="8.684"/><use xlink:href="#23" y="15.197"/><use xlink:href="#24" y="17.368"/><use xlink:href="#1" y="23.881"/></svg></svg></g></g></svg></svg>