<svg xmlns="http://www.w3.org/2000/svg" xmlns:xlink="http://www.w3.org/1999/xlink" width="900" height="282.23"><rect width="900" height="282.23" rx="0" ry="0" class="a"/><svg height="282.23" viewBox="0 0 90 28.223" width="900" xmlns="http://www.w3.org/2000/svg" xmlns:xlink="http://www.w3.org/1999/xlink"><style>@keyframes k{0%{transform:translateX(0)}5.2%{transform:translateX(-90px)}5.6%{transform:translateX(-450px)}9.6%{transform:translateX(-540px)}10.4%{transform:translateX(-630px)}10.8%{transform:translateX(-720px)}11.9%{transform:translateX(-810px)}15.2%{transform:translateX(-900px)}16%{transform:translateX(-990px)}17%{transform:translateX(-1080px)}18.6%{transform:translateX(-1170px)}19.4%{transform:translateX(-1260px)}20.4%{transform:translateX(-1350px)}21.2%{transform:translateX(-1440px)}22.2%{transform:translateX(-1530px)}23.2%{transform:translateX(-1620px)}24.5%{transform:translateX(-1710px)}26.2%{transform:translateX(-1800px)}27.2%{transform:translateX(-1890px)}27.9%{transform:translateX(-1980px)}29.2%{transform:translateX(-2070px)}30.3%{transform:translateX(-2250px)}30.4%{transform:translateX(-2340px)}34%{transform:translateX(-2520px)}34.9%{transform:translateX(-2610px)}35.3%{transform:translateX(-2700px)}35.7%{transform:translateX(-2790px)}36%{transform:translateX(-2880px)}36.4%{transform:translateX(-2970px)}36.8%{transform:translateX(-3060px)}37.1%{transform:translateX(-3150px)}37.5%{transform:translateX(-3240px)}37.9%{transform:translateX(-3330px)}38.3%{transform:translateX(-3420px)}38.6%{transform:translateX(-3510px)}39%{transform:translateX(-3600px)}39.1%{transform:translateX(-3690px)}39.3%{transform:translateX(-3780px)}39.4%{transform:translateX(-4230px)}39.5%{transform:translateX(-4320px)}39.8%{transform:translateX(-4770px)}39.9%{transform:translateX(-4860px)}40.8%{transform:translateX(-4950px)}41.8%{transform:translateX(-5040px)}44.5%{transform:translateX(-5130px)}46.1%{transform:translateX(-5220px)}46.9%{transform:translateX(-5310px)}47.7%{transform:translateX(-5400px)}49.1%{transform:translateX(-5490px)}50.7%{transform:translateX(-5760px)}51.7%{transform:translateX(-6480px)}54.1%{transform:translateX(-6570px)}54.2%{transform:translateX(-6660px)}54.4%{transform:translateX(-6930px)}54.5%{transform:translateX(-7110px)}60.2%{transform:translateX(-7200px)}60.8%{transform:translateX(-7290px)}62.2%{transform:translateX(-7380px)}63%{transform:translateX(-7470px)}64.9%{transform:translateX(-7560px)}66%{transform:translateX(-7650px)}67.2%{transform:translateX(-7740px)}67.9%{transform:translateX(-7830px)}69.4%{transform:translateX(-7920px)}70.3%{transform:translateX(-8010px)}71.8%{transform:translateX(-8100px)}73.1%{transform:translateX(-8190px)}74.3%{transform:translateX(-8280px)}75.5%{transform:translateX(-8370px)}76.6%{transform:translateX(-8460px)}79.3%{transform:translateX(-8640px)}79.4%{transform:translateX(-8730px)}84.8%{transform:translateX(-8820px)}84.9%{transform:translateX(-8910px)}85.1%{transform:translateX(-9360px)}to{transform:translateX(-9450px)}}.a{fill:#282a36}.c{fill:#ff6ac1}.d{fill:#eff0eb}.e{fill:#686868}.f{fill:#57c7ff}.g{fill:#b9c0cb}.h{fill:#ff5c57}</style><g font-size="1.67" font-family="Monaco,Consolas,Menlo,'Bitstream Vera Sans Mono','Powerline Symbols',monospace"><defs><symbol id="1"><text y="1.67" class="c">❯</text></symbol><symbol id="2"><text y="1.67" class="c">❯</text><text x="2.004" y="1.67" class="d">npm</text></symbol><symbol id="3"><text y="1.67" class="c">❯</text><text x="2.004" y="1.67" class="d">npm</text><text x="6.012" y="1.67" class="d">i</text></symbol><symbol id="4"><text y="1.67" class="c">❯</text><text x="2.004" y="1.67" class="d">npm</text><text x="6.012" y="1.67" class="d">i</text><text x="8.016" y="1.67" class="d">-g</text></symbol><symbol id="5"><text y="1.67" class="c">❯</text><text x="2.004" y="1.67" class="d">npm</text><text x="6.012" y="1.67" class="d">i</text><text x="8.016" y="1.67" class="d">-g</text><text x="11.022" y="1.67" class="d">movie-art</text></symbol><symbol id="6"><text y="1.67" class="d">⸨</text><text x="1.002" y="1.67" class="e">░░░░░░░░░░░░░░░░░░</text><text x="19.038" y="1.67" class="d">⸩</text><text x="21.042" y="1.67" class="d">⠧</text><text x="23.046" y="1.67" class="d">rollbackFailedOptional:</text>0<text x="47.094" y="1.67" class="f">verb</text><text x="52.104" y="1.67" class="c">npm-session</text><text x="64.128" y="1.67" class="d">4d5234ba77fb9372</text></symbol><symbol id="7"><text y="1.67" class="d">⸨</text><path class="g" d="M1.002 0h7v2.171h-7z"/><text x="1.002" y="1.67" class="a"></text><text x="8.016" y="1.67" class="e">░░░░░░░░░░░</text><text x="19.038" y="1.67" class="d">⸩</text><text x="21.042" y="1.67" class="d">⠼</text><text x="23.046" y="1.67" class="d">extract:movie-art:</text>0<text x="42.084" y="1.67" class="f">verb</text><text x="47.094" y="1.67" class="c">lock</text><text x="52.104" y="1.67" class="d">using</text><text x="58.116" y="1.67" class="d">/Users/tmorrow/.npm/_locks/stag</text></symbol><symbol id="8"><text y="1.67" class="d">/usr/local/bin/movie-art</text><text x="25.05" y="1.67" class="d">-&gt;</text><text x="28.056" y="1.67" class="d">/usr/local/lib/node_modules/movie-art/cli.js</text></symbol><symbol id="9"><text y="1.67" class="d">+</text><text x="2.004" y="1.67" class="d">movie-art@1.0.7</text></symbol><symbol id="10"><text y="1.67" class="d">added</text><text x="6.012" y="1.67" class="d">1</text><text x="8.016" y="1.67" class="d">package</text><text x="16.032" y="1.67" class="d">in</text><text x="19.038" y="1.67" class="d">0.765s</text></symbol><symbol id="11"><text y="1.67" class="c">❯</text><text x="2.004" y="1.67" class="d">movie-art</text></symbol><symbol id="12"><text y="1.67" class="d">Get</text><text x="4.008" y="1.67" class="d">a</text><text x="6.012" y="1.67" class="d">movie</text><text x="12.024" y="1.67" class="d">poster</text><text x="19.038" y="1.67" class="d">image</text><text x="25.05" y="1.67" class="d">url</text><text x="29.058" y="1.67" class="d">in</text><text x="32.064" y="1.67" class="d">node:</text><text x="38.076" y="1.67" class="d">Oceans</text><text x="45.09" y="1.67" class="d">Eleven</text><text x="52.104" y="1.67" class="d">➔</text><text x="54.108" y="1.67" class="d">http://path/to/oceans_eleven_poster.</text></symbol><symbol id="13"><text y="1.67" class="d">jpg</text></symbol><symbol id="14"><text y="1.67" class="d">Usage</text></symbol><symbol id="15"><text x="2.004" y="1.67" class="d">$</text><text x="4.008" y="1.67" class="d">movie-art</text><text x="14.028" y="1.67" class="d">movie</text><text x="20.04" y="1.67" class="d">[year]</text><text x="27.054" y="1.67" class="d">[size]</text><text x="34.068" y="1.67" class="d">[type]</text></symbol><symbol id="16"><text y="1.67" class="d">Example</text></symbol><symbol id="17"><text x="2.004" y="1.67" class="d">$</text><text x="4.008" y="1.67" class="d">movie-art</text><text x="14.028" y="1.67" class="d">&apos;Oceans</text><text x="22.044" y="1.67" class="d">Eleven&apos;</text><text x="30.06" y="1.67" class="d">1960</text></symbol><symbol id="18"><text x="2.004" y="1.67" class="d">http://path/to/oceans_eleven_poster_1960.jpg</text></symbol><symbol id="19"><text y="1.67" class="d">Available</text><text x="10.02" y="1.67" class="d">sizes:</text><text x="17.034" y="1.67" class="d">w92,w154,w185,w342,w500,w780,original</text></symbol><symbol id="20"><text y="1.67" class="h">❯</text></symbol><symbol id="21"><text y="1.67" class="h">❯</text><text x="2.004" y="1.67" class="d">movie-art</text></symbol><symbol id="22"><text y="1.67" class="h">❯</text><text x="2.004" y="1.67" class="d">movie-art</text><text x="12.024" y="1.67" class="d">crash</text></symbol><symbol id="23"><text y="1.67" class="d">http://image.tmdb.org/t/p/original/pG8LL4LYMCr5uikhx9rewrW8352.jpg</text></symbol><symbol id="a"><path fill="transparent" d="M0 0h90v13H0z"/></symbol><symbol id="b"><path fill="#97979b" d="M0 0h1.102v2.171H0z"/></symbol></defs><path class="a" d="M0 0h90v28.223H0z"/><g style="animation-duration:13.912932000000001s;animation-iteration-count:infinite;animation-name:k;animation-timing-function:steps(1,end)"><svg width="9540"><svg><use xlink:href="#a"/><use xlink:href="#b" x="-.004"/></svg><svg x="90"><use xlink:href="#a"/><use xlink:href="#b" x="-.004"/></svg><svg x="180"><use xlink:href="#a"/><use xlink:href="#b" x="-.004" y="4.317"/></svg><svg x="270"><use xlink:href="#a"/><use xlink:href="#b" x="-.004" y="4.317"/></svg><svg x="360"><use xlink:href="#a"/><use xlink:href="#b" x="1.996" y="4.317"/><use xlink:href="#1" y="4.342"/></svg><svg x="450"><use xlink:href="#a"/><use xlink:href="#b" x="1.996" y="4.317"/><use xlink:href="#1" y="4.342"/></svg><svg x="540"><use xlink:href="#a"/><use xlink:href="#b" x="2.996" y="4.317"/><text y="6.012" class="c">❯</text><text x="2.004" y="6.012" class="d">n</text></svg><svg x="630"><use xlink:href="#a"/><use xlink:href="#b" x="3.996" y="4.317"/><text y="6.012" class="c">❯</text><text x="2.004" y="6.012" class="d">np</text></svg><svg x="720"><use xlink:href="#a"/><use xlink:href="#b" x="4.996" y="4.317"/><use xlink:href="#2" y="4.342"/></svg><svg x="810"><use xlink:href="#a"/><use xlink:href="#b" x="5.996" y="4.317"/><use xlink:href="#2" y="4.342"/></svg><svg x="900"><use xlink:href="#a"/><use xlink:href="#b" x="6.996" y="4.317"/><use xlink:href="#3" y="4.342"/></svg><svg x="990"><use xlink:href="#a"/><use xlink:href="#b" x="7.996" y="4.317"/><use xlink:href="#3" y="4.342"/></svg><svg x="1080"><use xlink:href="#a"/><use xlink:href="#b" x="8.996" y="4.317"/><text y="6.012" class="c">❯</text><text x="2.004" y="6.012" class="d">npm</text><text x="6.012" y="6.012" class="d">i</text><text x="8.016" y="6.012" class="d">-</text></svg><svg x="1170"><use xlink:href="#a"/><use xlink:href="#b" x="9.996" y="4.317"/><use xlink:href="#4" y="4.342"/></svg><svg x="1260"><use xlink:href="#a"/><use xlink:href="#b" x="10.996" y="4.317"/><use xlink:href="#4" y="4.342"/></svg><svg x="1350"><use xlink:href="#a"/><use xlink:href="#b" x="11.996" y="4.317"/><text y="6.012" class="c">❯</text><text x="2.004" y="6.012" class="d">npm</text><text x="6.012" y="6.012" class="d">i</text><text x="8.016" y="6.012" class="d">-g</text><text x="11.022" y="6.012" class="d">m</text></svg><svg x="1440"><use xlink:href="#a"/><use xlink:href="#b" x="12.996" y="4.317"/><text y="6.012" class="c">❯</text><text x="2.004" y="6.012" class="d">npm</text><text x="6.012" y="6.012" class="d">i</text><text x="8.016" y="6.012" class="d">-g</text><text x="11.022" y="6.012" class="d">mo</text></svg><svg x="1530"><use xlink:href="#a"/><use xlink:href="#b" x="13.996" y="4.317"/><text y="6.012" class="c">❯</text><text x="2.004" y="6.012" class="d">npm</text><text x="6.012" y="6.012" class="d">i</text><text x="8.016" y="6.012" class="d">-g</text><text x="11.022" y="6.012" class="d">mov</text></svg><svg x="1620"><use xlink:href="#a"/><use xlink:href="#b" x="14.996" y="4.317"/><text y="6.012" class="c">❯</text><text x="2.004" y="6.012" class="d">npm</text><text x="6.012" y="6.012" class="d">i</text><text x="8.016" y="6.012" class="d">-g</text><text x="11.022" y="6.012" class="d">movi</text></svg><svg x="1710"><use xlink:href="#a"/><use xlink:href="#b" x="15.996" y="4.317"/><text y="6.012" class="c">❯</text><text x="2.004" y="6.012" class="d">npm</text><text x="6.012" y="6.012" class="d">i</text><text x="8.016" y="6.012" class="d">-g</text><text x="11.022" y="6.012" class="d">movie</text></svg><svg x="1800"><use xlink:href="#a"/><use xlink:href="#b" x="16.996" y="4.317"/><text y="6.012" class="c">❯</text><text x="2.004" y="6.012" class="d">npm</text><text x="6.012" y="6.012" class="d">i</text><text x="8.016" y="6.012" class="d">-g</text><text x="11.022" y="6.012" class="d">movie-</text></svg><svg x="1890"><use xlink:href="#a"/><use xlink:href="#b" x="17.996" y="4.317"/><text y="6.012" class="c">❯</text><text x="2.004" y="6.012" class="d">npm</text><text x="6.012" y="6.012" class="d">i</text><text x="8.016" y="6.012" class="d">-g</text><text x="11.022" y="6.012" class="d">movie-a</text></svg><svg x="1980"><use xlink:href="#a"/><use xlink:href="#b" x="18.996" y="4.317"/><text y="6.012" class="c">❯</text><text x="2.004" y="6.012" class="d">npm</text><text x="6.012" y="6.012" class="d">i</text><text x="8.016" y="6.012" class="d">-g</text><text x="11.022" y="6.012" class="d">movie-ar</text></svg><svg x="2070"><use xlink:href="#a"/><use xlink:href="#b" x="19.996" y="4.317"/><use xlink:href="#5" y="4.342"/></svg><svg x="2160"><use xlink:href="#a"/><use xlink:href="#b" x="19.996" y="4.317"/><use xlink:href="#5" y="4.342"/></svg><svg x="2250"><use xlink:href="#a"/><use xlink:href="#b" x="-.004" y="6.488"/><use xlink:href="#5" y="4.342"/></svg><svg x="2340"><use xlink:href="#a"/><use xlink:href="#b" x="-.004" y="6.488"/><use xlink:href="#5" y="4.342"/></svg><svg x="2430"><use xlink:href="#a"/><use xlink:href="#5" y="4.342"/></svg><svg x="2520"><use xlink:href="#a"/><use xlink:href="#5" y="4.342"/><use xlink:href="#6" y="6.513"/></svg><svg x="2610"><use xlink:href="#a"/><use xlink:href="#5" y="4.342"/><use xlink:href="#6" y="6.513"/></svg><svg x="2700"><use xlink:href="#a"/><use xlink:href="#5" y="4.342"/><use xlink:href="#6" y="6.513"/></svg><svg x="2790"><use xlink:href="#a"/><use xlink:href="#5" y="4.342"/><use xlink:href="#6" y="6.513"/></svg><svg x="2880"><use xlink:href="#a"/><use xlink:href="#5" y="4.342"/><use xlink:href="#6" y="6.513"/></svg><svg x="2970"><use xlink:href="#a"/><use xlink:href="#5" y="4.342"/><use xlink:href="#6" y="6.513"/></svg><svg x="3060"><use xlink:href="#a"/><use xlink:href="#5" y="4.342"/><use xlink:href="#6" y="6.513"/></svg><svg x="3150"><use xlink:href="#a"/><use xlink:href="#5" y="4.342"/><use xlink:href="#6" y="6.513"/></svg><svg x="3240"><use xlink:href="#a"/><use xlink:href="#5" y="4.342"/><text y="8.183" class="d">⸨</text><path class="g" d="M1.002 6.513h7v2.171h-7z"/><text x="1.002" y="8.183" class="a"></text><text x="8.016" y="8.183" class="e">░░░░░░░░░░░</text><text x="19.038" y="8.183" class="d">⸩</text><text x="21.042" y="8.183" class="d">⠧</text><text x="23.046" y="8.183" class="d">diffTrees:</text><path class="g" d="M34.068 6.513h4v2.171h-4z"/><text x="34.068" y="8.183" class="a">sill</text><text x="39.078" y="8.183" class="c">install</text><text x="47.094" y="8.183" class="d">generateActionsToTake</text></svg><svg x="3330"><use xlink:href="#a"/><use xlink:href="#5" y="4.342"/><use xlink:href="#7" y="6.513"/></svg><svg x="3420"><use xlink:href="#a"/><use xlink:href="#5" y="4.342"/><use xlink:href="#7" y="6.513"/></svg><svg x="3510"><use xlink:href="#a"/><use xlink:href="#5" y="4.342"/><use xlink:href="#7" y="6.513"/></svg><svg x="3600"><use xlink:href="#a"/><use xlink:href="#5" y="4.342"/><use xlink:href="#7" y="6.513"/></svg><svg x="3690"><use xlink:href="#a"/><use xlink:href="#5" y="4.342"/><text y="8.183" class="d">m</text><path class="g" d="M1.002 6.513h7v2.171h-7z"/><text x="1.002" y="8.183" class="a"></text><text x="8.016" y="8.183" class="e">░░░░░░░░░░░</text><text x="19.038" y="8.183" class="d">⸩</text><text x="21.042" y="8.183" class="d">⠼</text><text x="23.046" y="8.183" class="d">extract:movie-art:</text>0<text x="42.084" y="8.183" class="f">verb</text><text x="47.094" y="8.183" class="c">lock</text><text x="52.104" y="8.183" class="d">using</text><text x="58.116" y="8.183" class="d">/Users/tmorrow/.npm/_locks/stag</text></svg><svg x="3780"><use xlink:href="#a"/><use xlink:href="#b" x="-.004" y="6.488"/><use xlink:href="#5" y="4.342"/></svg><svg x="3870"><use xlink:href="#a"/><use xlink:href="#b" x="-.004" y="8.659"/><use xlink:href="#5" y="4.342"/><use xlink:href="#8" y="6.513"/></svg><svg x="3960"><use xlink:href="#a"/><use xlink:href="#5" y="4.342"/><use xlink:href="#8" y="6.513"/></svg><svg x="4050"><use xlink:href="#a"/><use xlink:href="#5" y="4.342"/><use xlink:href="#8" y="6.513"/><text y="10.354" class="d">⸨</text><path class="g" d="M1.002 8.684h12v2.171h-12z"/><text x="1.002" y="10.354" class="a"></text><text x="13.026" y="10.354" class="e">░░░░░░</text><text x="19.038" y="10.354" class="d">⸩</text><text x="21.042" y="10.354" class="d">⠋</text><text x="23.046" y="10.354" class="d">install:movie-art:</text><text x="42.084" y="10.354" fill="#5af78e">info</text><text x="47.094" y="10.354" class="c">lifecycle</text><text x="57.114" y="10.354" class="d">movie-art@1.0.7~install:</text><text x="82.164" y="10.354" class="d">movie-a</text></svg><svg x="4140"><use xlink:href="#a"/><use xlink:href="#b" x="-.004" y="8.659"/><use xlink:href="#5" y="4.342"/><use xlink:href="#8" y="6.513"/></svg><svg x="4230"><use xlink:href="#a"/><use xlink:href="#b" x="-.004" y="13.001"/><use xlink:href="#5" y="4.342"/><use xlink:href="#8" y="6.513"/><use xlink:href="#9" y="8.684"/><use xlink:href="#10" y="10.855"/></svg><svg x="4320"><use xlink:href="#a"/><use xlink:href="#b" x="-.004" y="13.001"/><use xlink:href="#5" y="4.342"/><use xlink:href="#8" y="6.513"/><use xlink:href="#9" y="8.684"/><use xlink:href="#10" y="10.855"/></svg><svg x="4410"><use xlink:href="#a"/><use xlink:href="#b" x="-.004" y="17.343"/><use xlink:href="#5" y="4.342"/><use xlink:href="#8" y="6.513"/><use xlink:href="#9" y="8.684"/><use xlink:href="#10" y="10.855"/></svg><svg x="4500"><use xlink:href="#a"/><use xlink:href="#b" x="-.004" y="17.343"/><use xlink:href="#5" y="4.342"/><use xlink:href="#8" y="6.513"/><use xlink:href="#9" y="8.684"/><use xlink:href="#10" y="10.855"/></svg><svg x="4590"><use xlink:href="#a"/><use xlink:href="#b" x="1.996" y="17.343"/><use xlink:href="#5" y="4.342"/><use xlink:href="#8" y="6.513"/><use xlink:href="#9" y="8.684"/><use xlink:href="#10" y="10.855"/><use xlink:href="#1" y="17.368"/></svg><svg x="4680"><use xlink:href="#a"/><use xlink:href="#b" x="1.996" y="17.343"/><use xlink:href="#5" y="4.342"/><use xlink:href="#8" y="6.513"/><use xlink:href="#9" y="8.684"/><use xlink:href="#10" y="10.855"/><use xlink:href="#1" y="17.368"/></svg><svg x="4770"><use xlink:href="#a"/><use xlink:href="#b" x="2.996" y="17.343"/><use xlink:href="#5" y="4.342"/><use xlink:href="#8" y="6.513"/><use xlink:href="#9" y="8.684"/><use xlink:href="#10" y="10.855"/><text y="19.038" class="c">❯</text><text x="2.004" y="19.038" class="d">m</text></svg><svg x="4860"><use xlink:href="#a"/><use xlink:href="#b" x="3.996" y="17.343"/><use xlink:href="#5" y="4.342"/><use xlink:href="#8" y="6.513"/><use xlink:href="#9" y="8.684"/><use xlink:href="#10" y="10.855"/><text y="19.038" class="c">❯</text><text x="2.004" y="19.038" class="d">mo</text></svg><svg x="4950"><use xlink:href="#a"/><use xlink:href="#b" x="4.996" y="17.343"/><use xlink:href="#5" y="4.342"/><use xlink:href="#8" y="6.513"/><use xlink:href="#9" y="8.684"/><use xlink:href="#10" y="10.855"/><text y="19.038" class="c">❯</text><text x="2.004" y="19.038" class="d">mov</text></svg><svg x="5040"><use xlink:href="#a"/><use xlink:href="#b" x="5.996" y="17.343"/><use xlink:href="#5" y="4.342"/><use xlink:href="#8" y="6.513"/><use xlink:href="#9" y="8.684"/><use xlink:href="#10" y="10.855"/><text y="19.038" class="c">❯</text><text x="2.004" y="19.038" class="d">movi</text></svg><svg x="5130"><use xlink:href="#a"/><use xlink:href="#b" x="6.996" y="17.343"/><use xlink:href="#5" y="4.342"/><use xlink:href="#8" y="6.513"/><use xlink:href="#9" y="8.684"/><use xlink:href="#10" y="10.855"/><text y="19.038" class="c">❯</text><text x="2.004" y="19.038" class="d">movie</text></svg><svg x="5220"><use xlink:href="#a"/><use xlink:href="#b" x="7.996" y="17.343"/><use xlink:href="#5" y="4.342"/><use xlink:href="#8" y="6.513"/><use xlink:href="#9" y="8.684"/><use xlink:href="#10" y="10.855"/><text y="19.038" class="c">❯</text><text x="2.004" y="19.038" class="d">movie-</text></svg><svg x="5310"><use xlink:href="#a"/><use xlink:href="#b" x="8.996" y="17.343"/><use xlink:href="#5" y="4.342"/><use xlink:href="#8" y="6.513"/><use xlink:href="#9" y="8.684"/><use xlink:href="#10" y="10.855"/><text y="19.038" class="c">❯</text><text x="2.004" y="19.038" class="d">movie-a</text></svg><svg x="5400"><use xlink:href="#a"/><use xlink:href="#b" x="9.996" y="17.343"/><use xlink:href="#5" y="4.342"/><use xlink:href="#8" y="6.513"/><use xlink:href="#9" y="8.684"/><use xlink:href="#10" y="10.855"/><text y="19.038" class="c">❯</text><text x="2.004" y="19.038" class="d">movie-ar</text></svg><svg x="5490"><use xlink:href="#a"/><use xlink:href="#b" x="10.996" y="17.343"/><use xlink:href="#5" y="4.342"/><use xlink:href="#8" y="6.513"/><use xlink:href="#9" y="8.684"/><use xlink:href="#10" y="10.855"/><use xlink:href="#11" y="17.368"/></svg><svg x="5580"><use xlink:href="#a"/><use xlink:href="#b" x="10.996" y="17.343"/><use xlink:href="#5" y="4.342"/><use xlink:href="#8" y="6.513"/><use xlink:href="#9" y="8.684"/><use xlink:href="#10" y="10.855"/><use xlink:href="#11" y="17.368"/></svg><svg x="5670"><use xlink:href="#a"/><use xlink:href="#b" x="-.004" y="19.514"/><use xlink:href="#5" y="4.342"/><use xlink:href="#8" y="6.513"/><use xlink:href="#9" y="8.684"/><use xlink:href="#10" y="10.855"/><use xlink:href="#11" y="17.368"/></svg><svg x="5760"><use xlink:href="#a"/><use xlink:href="#b" x="-.004" y="19.514"/><use xlink:href="#5" y="4.342"/><use xlink:href="#8" y="6.513"/><use xlink:href="#9" y="8.684"/><use xlink:href="#10" y="10.855"/><use xlink:href="#11" y="17.368"/></svg><svg x="5850"><use xlink:href="#a"/><use xlink:href="#b" x="-.004" y="23.856"/><use xlink:href="#5" y="4.342"/><use xlink:href="#8" y="6.513"/><use xlink:href="#9" y="8.684"/><use xlink:href="#10" y="10.855"/><use xlink:href="#11" y="17.368"/><use xlink:href="#12" y="19.539"/><use xlink:href="#13" y="21.71"/></svg><svg x="5940"><use xlink:href="#a"/><use xlink:href="#b" x="-.004" y="26.027"/><use xlink:href="#5" y="4.342"/><use xlink:href="#8" y="6.513"/><use xlink:href="#9" y="8.684"/><use xlink:href="#10" y="10.855"/><use xlink:href="#11" y="17.368"/><use xlink:href="#12" y="19.539"/><use xlink:href="#13" y="21.71"/></svg><svg x="6030"><use xlink:href="#a"/><use xlink:href="#b" x="-.004" y="26.027"/><use xlink:href="#5" y="2.171"/><use xlink:href="#8" y="4.342"/><use xlink:href="#9" y="6.513"/><use xlink:href="#10" y="8.684"/><use xlink:href="#11" y="15.197"/><use xlink:href="#12" y="17.368"/><use xlink:href="#13" y="19.539"/><use xlink:href="#14" y="23.881"/></svg><svg x="6120"><use xlink:href="#a"/><use xlink:href="#b" x="-.004" y="26.027"/><use xlink:href="#5"/><use xlink:href="#8" y="2.171"/><use xlink:href="#9" y="4.342"/><use xlink:href="#10" y="6.513"/><use xlink:href="#11" y="13.026"/><use xlink:href="#12" y="15.197"/><use xlink:href="#13" y="17.368"/><use xlink:href="#14" y="21.71"/><use xlink:href="#15" y="23.881"/></svg><svg x="6210"><use xlink:href="#a"/><use xlink:href="#b" x="-.004" y="26.027"/><use xlink:href="#8"/><use xlink:href="#9" y="2.171"/><use xlink:href="#10" y="4.342"/><use xlink:href="#11" y="10.855"/><use xlink:href="#12" y="13.026"/><use xlink:href="#13" y="15.197"/><use xlink:href="#14" y="19.539"/><use xlink:href="#15" y="21.71"/></svg><svg x="6300"><use xlink:href="#a"/><use xlink:href="#b" x="-.004" y="26.027"/><use xlink:href="#9"/><use xlink:href="#10" y="2.171"/><use xlink:href="#11" y="8.684"/><use xlink:href="#12" y="10.855"/><use xlink:href="#13" y="13.026"/><use xlink:href="#14" y="17.368"/><use xlink:href="#15" y="19.539"/><use xlink:href="#16" y="23.881"/></svg><svg x="6390"><use xlink:href="#a"/><use xlink:href="#b" x="-.004" y="26.027"/><use xlink:href="#10"/><use xlink:href="#11" y="6.513"/><use xlink:href="#12" y="8.684"/><use xlink:href="#13" y="10.855"/><use xlink:href="#14" y="15.197"/><use xlink:href="#15" y="17.368"/><use xlink:href="#16" y="21.71"/><use xlink:href="#17" y="23.881"/></svg><svg x="6480"><use xlink:href="#a"/><use xlink:href="#b" x="-.004" y="26.027"/><use xlink:href="#11" y="4.342"/><use xlink:href="#12" y="6.513"/><use xlink:href="#13" y="8.684"/><use xlink:href="#14" y="13.026"/><use xlink:href="#15" y="15.197"/><use xlink:href="#16" y="19.539"/><use xlink:href="#17" y="21.71"/><use xlink:href="#18" y="23.881"/></svg><svg x="6570"><use xlink:href="#a"/><use xlink:href="#b" x="-.004" y="26.027"/><use xlink:href="#11" y="2.171"/><use xlink:href="#12" y="4.342"/><use xlink:href="#13" y="6.513"/><use xlink:href="#14" y="10.855"/><use xlink:href="#15" y="13.026"/><use xlink:href="#16" y="17.368"/><use xlink:href="#17" y="19.539"/><use xlink:href="#18" y="21.71"/><use xlink:href="#19" y="23.881"/></svg><svg x="6660"><use xlink:href="#a"/><use xlink:href="#b" x="-.004" y="26.027"/><use xlink:href="#11" y="2.171"/><use xlink:href="#12" y="4.342"/><use xlink:href="#13" y="6.513"/><use xlink:href="#14" y="10.855"/><use xlink:href="#15" y="13.026"/><use xlink:href="#16" y="17.368"/><use xlink:href="#17" y="19.539"/><use xlink:href="#18" y="21.71"/><use xlink:href="#19" y="23.881"/></svg><svg x="6750"><use xlink:href="#a"/><use xlink:href="#b" x="-.004" y="26.027"/><use xlink:href="#12"/><use xlink:href="#13" y="2.171"/><use xlink:href="#14" y="6.513"/><use xlink:href="#15" y="8.684"/><use xlink:href="#16" y="13.026"/><use xlink:href="#17" y="15.197"/><use xlink:href="#18" y="17.368"/><use xlink:href="#19" y="19.539"/></svg><svg x="6840"><use xlink:href="#a"/><use xlink:href="#b" x="-.004" y="26.027"/><use xlink:href="#12"/><use xlink:href="#13" y="2.171"/><use xlink:href="#14" y="6.513"/><use xlink:href="#15" y="8.684"/><use xlink:href="#16" y="13.026"/><use xlink:href="#17" y="15.197"/><use xlink:href="#18" y="17.368"/><use xlink:href="#19" y="19.539"/></svg><svg x="6930"><use xlink:href="#a"/><use xlink:href="#b" x="1.996" y="26.027"/><use xlink:href="#12"/><use xlink:href="#13" y="2.171"/><use xlink:href="#14" y="6.513"/><use xlink:href="#15" y="8.684"/><use xlink:href="#16" y="13.026"/><use xlink:href="#17" y="15.197"/><use xlink:href="#18" y="17.368"/><use xlink:href="#19" y="19.539"/><use xlink:href="#20" y="26.052"/></svg><svg x="7020"><use xlink:href="#a"/><use xlink:href="#b" x="1.996" y="26.027"/><use xlink:href="#12"/><use xlink:href="#13" y="2.171"/><use xlink:href="#14" y="6.513"/><use xlink:href="#15" y="8.684"/><use xlink:href="#16" y="13.026"/><use xlink:href="#17" y="15.197"/><use xlink:href="#18" y="17.368"/><use xlink:href="#19" y="19.539"/><use xlink:href="#20" y="26.052"/></svg><svg x="7110"><use xlink:href="#a"/><use xlink:href="#b" x="1.996" y="26.027"/><use xlink:href="#12"/><use xlink:href="#13" y="2.171"/><use xlink:href="#14" y="6.513"/><use xlink:href="#15" y="8.684"/><use xlink:href="#16" y="13.026"/><use xlink:href="#17" y="15.197"/><use xlink:href="#18" y="17.368"/><use xlink:href="#19" y="19.539"/><use xlink:href="#20" y="26.052"/></svg><svg x="7200"><use xlink:href="#a"/><use xlink:href="#b" x="2.996" y="26.027"/><use xlink:href="#12"/><use xlink:href="#13" y="2.171"/><use xlink:href="#14" y="6.513"/><use xlink:href="#15" y="8.684"/><use xlink:href="#16" y="13.026"/><use xlink:href="#17" y="15.197"/><use xlink:href="#18" y="17.368"/><use xlink:href="#19" y="19.539"/><text y="27.722" class="h">❯</text><text x="2.004" y="27.722" class="d">m</text></svg><svg x="7290"><use xlink:href="#a"/><use xlink:href="#b" x="3.996" y="26.027"/><use xlink:href="#12"/><use xlink:href="#13" y="2.171"/><use xlink:href="#14" y="6.513"/><use xlink:href="#15" y="8.684"/><use xlink:href="#16" y="13.026"/><use xlink:href="#17" y="15.197"/><use xlink:href="#18" y="17.368"/><use xlink:href="#19" y="19.539"/><text y="27.722" class="h">❯</text><text x="2.004" y="27.722" class="d">mo</text></svg><svg x="7380"><use xlink:href="#a"/><use xlink:href="#b" x="4.996" y="26.027"/><use xlink:href="#12"/><use xlink:href="#13" y="2.171"/><use xlink:href="#14" y="6.513"/><use xlink:href="#15" y="8.684"/><use xlink:href="#16" y="13.026"/><use xlink:href="#17" y="15.197"/><use xlink:href="#18" y="17.368"/><use xlink:href="#19" y="19.539"/><text y="27.722" class="h">❯</text><text x="2.004" y="27.722" class="d">mov</text></svg><svg x="7470"><use xlink:href="#a"/><use xlink:href="#b" x="5.996" y="26.027"/><use xlink:href="#12"/><use xlink:href="#13" y="2.171"/><use xlink:href="#14" y="6.513"/><use xlink:href="#15" y="8.684"/><use xlink:href="#16" y="13.026"/><use xlink:href="#17" y="15.197"/><use xlink:href="#18" y="17.368"/><use xlink:href="#19" y="19.539"/><text y="27.722" class="h">❯</text><text x="2.004" y="27.722" class="d">movi</text></svg><svg x="7560"><use xlink:href="#a"/><use xlink:href="#b" x="6.996" y="26.027"/><use xlink:href="#12"/><use xlink:href="#13" y="2.171"/><use xlink:href="#14" y="6.513"/><use xlink:href="#15" y="8.684"/><use xlink:href="#16" y="13.026"/><use xlink:href="#17" y="15.197"/><use xlink:href="#18" y="17.368"/><use xlink:href="#19" y="19.539"/><text y="27.722" class="h">❯</text><text x="2.004" y="27.722" class="d">movie</text></svg><svg x="7650"><use xlink:href="#a"/><use xlink:href="#b" x="7.996" y="26.027"/><use xlink:href="#12"/><use xlink:href="#13" y="2.171"/><use xlink:href="#14" y="6.513"/><use xlink:href="#15" y="8.684"/><use xlink:href="#16" y="13.026"/><use xlink:href="#17" y="15.197"/><use xlink:href="#18" y="17.368"/><use xlink:href="#19" y="19.539"/><text y="27.722" class="h">❯</text><text x="2.004" y="27.722" class="d">movie-</text></svg><svg x="7740"><use xlink:href="#a"/><use xlink:href="#b" x="8.996" y="26.027"/><use xlink:href="#12"/><use xlink:href="#13" y="2.171"/><use xlink:href="#14" y="6.513"/><use xlink:href="#15" y="8.684"/><use xlink:href="#16" y="13.026"/><use xlink:href="#17" y="15.197"/><use xlink:href="#18" y="17.368"/><use xlink:href="#19" y="19.539"/><text y="27.722" class="h">❯</text><text x="2.004" y="27.722" class="d">movie-a</text></svg><svg x="7830"><use xlink:href="#a"/><use xlink:href="#b" x="9.996" y="26.027"/><use xlink:href="#12"/><use xlink:href="#13" y="2.171"/><use xlink:href="#14" y="6.513"/><use xlink:href="#15" y="8.684"/><use xlink:href="#16" y="13.026"/><use xlink:href="#17" y="15.197"/><use xlink:href="#18" y="17.368"/><use xlink:href="#19" y="19.539"/><text y="27.722" class="h">❯</text><text x="2.004" y="27.722" class="d">movie-ar</text></svg><svg x="7920"><use xlink:href="#a"/><use xlink:href="#b" x="10.996" y="26.027"/><use xlink:href="#12"/><use xlink:href="#13" y="2.171"/><use xlink:href="#14" y="6.513"/><use xlink:href="#15" y="8.684"/><use xlink:href="#16" y="13.026"/><use xlink:href="#17" y="15.197"/><use xlink:href="#18" y="17.368"/><use xlink:href="#19" y="19.539"/><use xlink:href="#21" y="26.052"/></svg><svg x="8010"><use xlink:href="#a"/><use xlink:href="#b" x="11.996" y="26.027"/><use xlink:href="#12"/><use xlink:href="#13" y="2.171"/><use xlink:href="#14" y="6.513"/><use xlink:href="#15" y="8.684"/><use xlink:href="#16" y="13.026"/><use xlink:href="#17" y="15.197"/><use xlink:href="#18" y="17.368"/><use xlink:href="#19" y="19.539"/><use xlink:href="#21" y="26.052"/></svg><svg x="8100"><use xlink:href="#a"/><use xlink:href="#b" x="12.996" y="26.027"/><use xlink:href="#12"/><use xlink:href="#13" y="2.171"/><use xlink:href="#14" y="6.513"/><use xlink:href="#15" y="8.684"/><use xlink:href="#16" y="13.026"/><use xlink:href="#17" y="15.197"/><use xlink:href="#18" y="17.368"/><use xlink:href="#19" y="19.539"/><text y="27.722" class="h">❯</text><text x="2.004" y="27.722" class="d">movie-art</text><text x="12.024" y="27.722" class="d">c</text></svg><svg x="8190"><use xlink:href="#a"/><use xlink:href="#b" x="13.996" y="26.027"/><use xlink:href="#12"/><use xlink:href="#13" y="2.171"/><use xlink:href="#14" y="6.513"/><use xlink:href="#15" y="8.684"/><use xlink:href="#16" y="13.026"/><use xlink:href="#17" y="15.197"/><use xlink:href="#18" y="17.368"/><use xlink:href="#19" y="19.539"/><text y="27.722" class="h">❯</text><text x="2.004" y="27.722" class="d">movie-art</text><text x="12.024" y="27.722" class="d">cr</text></svg><svg x="8280"><use xlink:href="#a"/><use xlink:href="#b" x="14.996" y="26.027"/><use xlink:href="#12"/><use xlink:href="#13" y="2.171"/><use xlink:href="#14" y="6.513"/><use xlink:href="#15" y="8.684"/><use xlink:href="#16" y="13.026"/><use xlink:href="#17" y="15.197"/><use xlink:href="#18" y="17.368"/><use xlink:href="#19" y="19.539"/><text y="27.722" class="h">❯</text><text x="2.004" y="27.722" class="d">movie-art</text><text x="12.024" y="27.722" class="d">cra</text></svg><svg x="8370"><use xlink:href="#a"/><use xlink:href="#b" x="15.996" y="26.027"/><use xlink:href="#12"/><use xlink:href="#13" y="2.171"/><use xlink:href="#14" y="6.513"/><use xlink:href="#15" y="8.684"/><use xlink:href="#16" y="13.026"/><use xlink:href="#17" y="15.197"/><use xlink:href="#18" y="17.368"/><use xlink:href="#19" y="19.539"/><text y="27.722" class="h">❯</text><text x="2.004" y="27.722" class="d">movie-art</text><text x="12.024" y="27.722" class="d">cras</text></svg><svg x="8460"><use xlink:href="#a"/><use xlink:href="#b" x="16.996" y="26.027"/><use xlink:href="#12"/><use xlink:href="#13" y="2.171"/><use xlink:href="#14" y="6.513"/><use xlink:href="#15" y="8.684"/><use xlink:href="#16" y="13.026"/><use xlink:href="#17" y="15.197"/><use xlink:href="#18" y="17.368"/><use xlink:href="#19" y="19.539"/><use xlink:href="#22" y="26.052"/></svg><svg x="8550"><use xlink:href="#a"/><use xlink:href="#b" x="16.996" y="26.027"/><use xlink:href="#12"/><use xlink:href="#13" y="2.171"/><use xlink:href="#14" y="6.513"/><use xlink:href="#15" y="8.684"/><use xlink:href="#16" y="13.026"/><use xlink:href="#17" y="15.197"/><use xlink:href="#18" y="17.368"/><use xlink:href="#19" y="19.539"/><use xlink:href="#22" y="26.052"/></svg><svg x="8640"><use xlink:href="#a"/><use xlink:href="#b" x="-.004" y="26.027"/><use xlink:href="#13"/><use xlink:href="#14" y="4.342"/><use xlink:href="#15" y="6.513"/><use xlink:href="#16" y="10.855"/><use xlink:href="#17" y="13.026"/><use xlink:href="#18" y="15.197"/><use xlink:href="#19" y="17.368"/><use xlink:href="#22" y="23.881"/></svg><svg x="8730"><use xlink:href="#a"/><use xlink:href="#b" x="-.004" y="26.027"/><use xlink:href="#13"/><use xlink:href="#14" y="4.342"/><use xlink:href="#15" y="6.513"/><use xlink:href="#16" y="10.855"/><use xlink:href="#17" y="13.026"/><use xlink:href="#18" y="15.197"/><use xlink:href="#19" y="17.368"/><use xlink:href="#22" y="23.881"/></svg><svg x="8820"><use xlink:href="#a"/><use xlink:href="#b" x="-.004" y="26.027"/><use xlink:href="#14" y="2.171"/><use xlink:href="#15" y="4.342"/><use xlink:href="#16" y="8.684"/><use xlink:href="#17" y="10.855"/><use xlink:href="#18" y="13.026"/><use xlink:href="#19" y="15.197"/><use xlink:href="#22" y="21.71"/><use xlink:href="#23" y="23.881"/></svg><svg x="8910"><use xlink:href="#a"/><use xlink:href="#b" x="-.004" y="26.027"/><use xlink:href="#14" y="2.171"/><use xlink:href="#15" y="4.342"/><use xlink:href="#16" y="8.684"/><use xlink:href="#17" y="10.855"/><use xlink:href="#18" y="13.026"/><use xlink:href="#19" y="15.197"/><use xlink:href="#22" y="21.71"/><use xlink:href="#23" y="23.881"/></svg><svg x="9000"><use xlink:href="#a"/><use xlink:href="#b" x="-.004" y="26.027"/><use xlink:href="#15"/><use xlink:href="#16" y="4.342"/><use xlink:href="#17" y="6.513"/><use xlink:href="#18" y="8.684"/><use xlink:href="#19" y="10.855"/><use xlink:href="#22" y="17.368"/><use xlink:href="#23" y="19.539"/></svg><svg x="9090"><use xlink:href="#a"/><use xlink:href="#b" x="-.004" y="26.027"/><use xlink:href="#15"/><use xlink:href="#16" y="4.342"/><use xlink:href="#17" y="6.513"/><use xlink:href="#18" y="8.684"/><use xlink:href="#19" y="10.855"/><use xlink:href="#22" y="17.368"/><use xlink:href="#23" y="19.539"/></svg><svg x="9180"><use xlink:href="#a"/><use xlink:href="#b" x="-.004" y="26.027"/><use xlink:href="#15"/><use xlink:href="#16" y="4.342"/><use xlink:href="#17" y="6.513"/><use xlink:href="#18" y="8.684"/><use xlink:href="#19" y="10.855"/><use xlink:href="#22" y="17.368"/><use xlink:href="#23" y="19.539"/></svg><svg x="9270"><use xlink:href="#a"/><use xlink:href="#b" x="1.996" y="26.027"/><use xlink:href="#15"/><use xlink:href="#16" y="4.342"/><use xlink:href="#17" y="6.513"/><use xlink:href="#18" y="8.684"/><use xlink:href="#19" y="10.855"/><use xlink:href="#22" y="17.368"/><use xlink:href="#23" y="19.539"/><use xlink:href="#1" y="26.052"/></svg><svg x="9360"><use xlink:href="#a"/><use xlink:href="#b" x="1.996" y="26.027"/><use xlink:href="#15"/><use xlink:href="#16" y="4.342"/><use xlink:href="#17" y="6.513"/><use xlink:href="#18" y="8.684"/><use xlink:href="#19" y="10.855"/><use xlink:href="#22" y="17.368"/><use xlink:href="#23" y="19.539"/><use xlink:href="#1" y="26.052"/></svg><svg x="9450"><use xlink:href="#a"/><use xlink:href="#b" x="-.004" y="26.027"/><use xlink:href="#16" y="2.171"/><use xlink:href="#17" y="4.342"/><use xlink:href="#18" y="6.513"/><use xlink:href="#19" y="8.684"/><use xlink:href="#22" y="15.197"/><use xlink:href="#23" y="17.368"/><use xlink:href="#1" y="23.881"/></svg></svg></g></g></svg></svg>